<?xml version="1.0" standalone="no"?>
<!DOCTYPE svg PUBLIC "-//W3C//DTD SVG 20010904//EN"
 "http://www.w3.org/TR/2001/REC-SVG-20010904/DTD/svg10.dtd">
<svg version="1.0" xmlns="http://www.w3.org/2000/svg"
 width="650.000000pt" height="650.000000pt" viewBox="0 0 650.000000 650.000000"
 preserveAspectRatio="xMidYMid meet">
<metadata>
Created by potrace 1.14, written by Peter Selinger 2001-2017
</metadata>
<g transform="translate(0.000000,650.000000) scale(0.100000,-0.100000)"
fill="#000000" stroke="none">
<path d="M2805 4919 c-353 -36 -805 -187 -970 -326 -74 -62 -230 -221 -323
-329 -183 -214 -342 -468 -416 -665 -29 -77 -64 -233 -74 -332 -6 -66 -8 -350
-2 -379 1 -7 0 -24 -3 -38 -11 -54 46 -320 109 -508 109 -323 320 -650 605
-932 162 -160 297 -245 462 -290 127 -34 221 -42 452 -40 186 2 496 2 863 0
306 -2 460 29 627 128 110 65 272 209 380 337 22 26 48 57 59 69 10 11 45 55
77 97 224 293 380 637 443 974 24 124 27 158 30 335 7 319 -41 552 -163 785
-57 109 -172 278 -274 405 -90 112 -316 345 -382 395 -21 17 -48 38 -58 49
-30 29 -210 110 -336 150 -127 41 -280 79 -386 95 -38 6 -88 13 -110 16 -69
11 -516 14 -610 4z m530 -329 c244 -30 448 -90 474 -139 15 -28 42 -41 106
-51 109 -18 218 -87 338 -214 70 -74 151 -189 178 -253 11 -27 24 -57 29 -68
5 -11 27 -64 49 -118 35 -85 69 -140 133 -211 71 -79 60 -199 -24 -242 -53
-28 -271 -18 -310 13 -18 15 -148 41 -238 48 -41 4 -82 8 -91 11 -9 2 -33 5
-54 6 -32 1 -42 8 -74 50 -20 27 -56 62 -81 77 -45 28 -209 73 -315 86 -27 4
-61 9 -75 12 -14 3 -124 6 -245 8 -237 4 -378 -8 -555 -45 -195 -41 -268 -77
-322 -159 l-32 -48 -111 -12 c-122 -14 -272 -47 -295 -66 -28 -23 -170 -40
-249 -30 -46 6 -62 13 -94 46 -37 37 -39 41 -34 88 6 57 15 77 71 151 65 85
83 119 117 215 69 198 133 302 269 441 108 110 170 149 269 173 96 23 117 34
135 69 30 58 300 136 574 166 135 14 327 13 457 -4z m895 -1880 c0 -6 -6 -13
-14 -16 -8 -3 -17 -15 -21 -27 -6 -18 -8 -19 -12 -5 -6 22 14 58 32 58 8 0 15
-5 15 -10z m428 -6 c41 -4 56 -11 69 -30 52 -81 -92 -446 -282 -714 -34 -48
-123 -157 -171 -210 -48 -52 -118 -140 -129 -161 -5 -11 -14 -19 -19 -19 -5 0
-32 -18 -60 -39 -110 -84 -189 -111 -352 -118 -154 -8 -170 -1 -221 90 -22 39
-53 103 -68 140 -16 38 -37 75 -48 82 -19 13 -17 17 44 78 118 116 231 165
393 168 133 2 160 14 262 116 133 134 192 226 193 303 l1 35 44 -3 c50 -4 88
12 130 57 24 25 32 46 42 108 7 44 8 87 4 99 -14 37 -17 37 168 18z m-2719
-20 c13 -28 7 -44 -9 -28 -13 13 -21 54 -11 54 4 0 13 -12 20 -26z m-310 -11
c-3 -24 11 -122 23 -153 22 -60 94 -110 161 -114 37 -1 42 -5 47 -31 8 -38 32
-83 62 -115 75 -80 122 -145 139 -191 28 -74 63 -115 124 -144 68 -34 132 -37
227 -13 l77 20 53 -30 c62 -36 187 -137 195 -158 3 -8 -1 -22 -10 -32 -8 -9
-28 -46 -43 -82 -54 -121 -97 -191 -126 -206 -21 -11 -57 -14 -126 -13 -170 3
-260 31 -368 113 -34 25 -67 46 -73 46 -6 0 -11 5 -11 11 0 7 -15 26 -32 43
-40 40 -182 203 -235 271 -94 121 -184 277 -247 431 -64 156 -77 198 -78 252
-3 89 20 105 163 110 73 3 80 1 78 -15z"/>
</g>
</svg>
